<svg width="24" height="24" viewBox="0 0 24 24" fill="none" xmlns="http://www.w3.org/2000/svg">
<path d="M12 1.74107L3.65138 16.1181H20.3486L12 1.74107ZM10.7885 2.3339L3.375 7.69842V15.1004L10.7885 2.3339ZM13.2114 2.3339L20.625 15.1005V7.69837L13.2114 2.3339ZM6.99975 6.55359V7.57481L6.60197 8.02856V7.2344C6.47203 7.38628 6.33516 7.53285 6.20892 7.6874C6.37467 7.70114 6.32536 7.94193 6.31238 8.05078C6.23053 8.49778 5.93016 8.8746 5.68406 9.21281C5.59298 9.33206 5.49923 9.4507 5.40244 9.5647C5.18447 9.72407 5.00447 9.77048 4.89736 9.49612C4.91114 9.13021 5.07736 8.78268 5.27452 8.51329L5.52239 8.14214C5.52014 8.25754 5.52708 8.3751 5.51902 8.48924C5.40933 8.69301 5.20186 8.93268 5.24911 9.174C5.61286 9.21496 5.82192 8.66479 5.92983 8.39681C5.96883 8.26743 6.02864 8.14096 5.86336 8.14209V7.80159L6.99975 6.55359ZM16.9433 6.61031L19.0458 9.16331V9.50371L17.6253 7.80168V8.19881L17.3413 7.8584C17.334 7.66387 17.2745 7.46573 17.2276 7.29107C17.1404 7.15345 17.042 7.0237 16.9435 6.89404L16.9433 6.61031ZM12.0033 9.55593C12.3956 9.55593 12.6939 9.62765 12.898 9.77095C13.1022 9.91284 13.2043 10.1213 13.2043 10.3964C13.2043 10.5804 13.1536 10.7339 13.0522 10.8569C12.9524 10.98 12.804 11.0712 12.607 11.1306C12.8271 11.1914 12.9928 11.2906 13.1044 11.4282C13.2172 11.5642 13.2738 11.7365 13.2738 11.945C13.2738 12.2664 13.1666 12.5097 12.9523 12.6748C12.7395 12.8384 12.4232 12.9201 12.0033 12.9201C11.582 12.9201 11.2634 12.8384 11.0477 12.6748C10.8334 12.5097 10.7262 12.2664 10.7262 11.9449C10.7262 11.7365 10.782 11.5643 10.8936 11.4282C11.0064 11.2906 11.1729 11.1914 11.393 11.1305C11.1961 11.0712 11.0477 10.98 10.9478 10.8569C10.848 10.7339 10.7979 10.5803 10.7979 10.3965C10.7979 10.1229 10.9001 9.91439 11.1042 9.77104C11.3083 9.6277 11.608 9.55607 12.0033 9.55607V9.55593ZM12.0033 10.0815C11.8702 10.0815 11.7673 10.1163 11.6948 10.1858C11.6239 10.2553 11.5884 10.3537 11.5884 10.4811C11.5884 10.61 11.6239 10.7092 11.6948 10.7787C11.7673 10.8482 11.8702 10.883 12.0033 10.883C12.1336 10.883 12.2342 10.8482 12.3052 10.7787C12.3761 10.7092 12.4116 10.61 12.4116 10.4812C12.4116 10.3522 12.3761 10.2538 12.3052 10.1858C12.2342 10.1163 12.1336 10.0815 12.0033 10.0815ZM12.0033 11.4063C11.8469 11.4063 11.7267 11.449 11.6428 11.5344C11.5588 11.6199 11.5167 11.7422 11.5167 11.9015C11.5167 12.0607 11.5588 12.1831 11.6428 12.2685C11.7267 12.3525 11.8469 12.3945 12.0033 12.3945C12.1582 12.3945 12.2769 12.3525 12.3594 12.2685C12.4419 12.183 12.4832 12.0607 12.4832 11.9014C12.4832 11.7407 12.4419 11.6184 12.3594 11.5344C12.2769 11.449 12.1582 11.4062 12.0033 11.4062V11.4063ZM4.15781 16.8681L12 22.5427L19.8422 16.8681H4.15781ZM10.6931 17.957H13.2501V18.1839C12.5748 18.4625 12.2384 18.7885 11.9432 19.3753H11.2044C11.5374 18.7283 11.8863 18.545 12.4546 18.1839H10.693L10.6931 17.957Z" fill="#FA3AC2"/>
</svg>
